HIERARCHY
ROOT Hips
{
    OFFSET 0.000000 0.000000 0.000000
    CHANNELS 6 Xposition Yposition Zposition Zrotation Xrotation Yrotation
    JOINT Spine
    {
        OFFSET -0.000000 8.172037 0.000000
        CHANNELS 3 Zrotation Xrotation Yrotation
        JOINT Spine1
        {
            OFFSET -0.000000 18.392342 0.000000
            CHANNELS 3 Zrotation Xrotation Yrotation
            JOINT Neck
            {
                OFFSET -0.000000 18.316809 1.665164
                CHANNELS 3 Zrotation Xrotation Yrotation
                JOINT Head
                {
                    OFFSET -0.000000 13.952258 -1.993180
                    CHANNELS 3 Zrotation Xrotation Yrotation
                    End Site
                    {
                        OFFSET -0.000000 24.914745 0.000000
                    }
                }
            }
            JOINT LeftShoulder
            {
                OFFSET 4.035833 16.062790 -0.310290
                CHANNELS 3 Zrotation Xrotation Yrotation
                JOINT LeftArm
                {
                    OFFSET 12.395579 0.000000 0.000000
                    CHANNELS 3 Zrotation Xrotation Yrotation
                    JOINT LeftForeArm
                    {
                        OFFSET 26.414022 0.000000 0.000000
                        CHANNELS 3 Zrotation Xrotation Yrotation
                        JOINT LeftHand
                        {
                            OFFSET 28.641636 0.000000 0.000000
                            CHANNELS 3 Zrotation Xrotation Yrotation
                            End Site
                            {
                                OFFSET 14.948848 0.000000 0.000000
                            }
                        }
                    }
                }
            }
            JOINT RightShoulder
            {
                OFFSET -3.919767 16.062790 -0.310290
                CHANNELS 3 Zrotation Xrotation Yrotation
                JOINT RightArm
                {
                    OFFSET -12.395579 0.000000 0.000000
                    CHANNELS 3 Zrotation Xrotation Yrotation
                    JOINT RightForeArm
                    {
                        OFFSET -26.414022 0.000000 0.000000
                        CHANNELS 3 Zrotation Xrotation Yrotation
                        JOINT RightHand
                        {
                            OFFSET -28.641636 0.000000 0.000000
                            CHANNELS 3 Zrotation Xrotation Yrotation
                            End Site
                            {
                                OFFSET -14.948848 0.000000 0.000000
                            }
                        }
                    }
                }
            }
        }
    }
    JOINT LeftUpLeg
    {
        OFFSET 9.965899 0.000000 0.000000
        CHANNELS 3 Zrotation Xrotation Yrotation
        JOINT LeftLeg
        {
            OFFSET -0.000000 -49.671295 0.000000
            CHANNELS 3 Zrotation Xrotation Yrotation
            JOINT LeftFoot
            {
                OFFSET -0.000000 -36.155865 0.000000
                CHANNELS 3 Zrotation Xrotation Yrotation
                JOINT LeftToeBase
                {
                    OFFSET -0.000000 -6.477834 14.948848
                    CHANNELS 3 Zrotation Xrotation Yrotation
                    End Site
                    {
                        OFFSET -0.000000 0.000000 3.986359
                    }
                }
            }
        }
    }
    JOINT RightUpLeg
    {
        OFFSET -9.965899 0.000000 0.000000
        CHANNELS 3 Zrotation Xrotation Yrotation
        JOINT RightLeg
        {
            OFFSET -0.000000 -49.671295 0.000000
            CHANNELS 3 Zrotation Xrotation Yrotation
            JOINT RightFoot
            {
                OFFSET -0.000000 -36.155865 0.000000
                CHANNELS 3 Zrotation Xrotation Yrotation
                JOINT RightToeBase
                {
                    OFFSET -0.000000 -6.477834 14.948848
                    CHANNELS 3 Zrotation Xrotation Yrotation
                    End Site
                    {
                        OFFSET -0.000000 0.000000 3.986359
                    }
                }
            }
        }
    }
}
MOTION
Frames:    14
Frame Time:    0.010000
-22.215799    92.788490    33.866734    15.481210    -14.081844    -125.609413    -4.526510    -0.076998    10.258929    3.663793    13.040792    9.843058    3.606475    36.674175    -26.180468    33.011742    -37.246025    -11.368586    6.871337    3.083231    5.269817    -67.669609    36.013618    -22.223862    -0.810013    -6.313646    -25.923351    3.732024    -6.586002    -2.697979    0.776379    -3.330582    27.792679    48.402813    20.130527    72.416328    25.470461    5.206964    18.017319    1.839757    1.042747    -3.959114    -7.133353    -47.670334    -23.771330    -3.024190    36.657043    -9.524095    1.254628    -3.425847    -7.886247    0.000000    0.000000    0.000000    -17.259899    -6.990692    -10.540739    9.673443    31.709446    6.204513    -3.817716    -7.238604    8.422090    0.000000    0.000000    0.000000    
-22.365934    92.967667    33.598835    15.389508    -13.974193    -125.391327    -4.475203    -0.324486    10.284145    3.659106    13.161450    9.874537    3.727768    36.546459    -26.297585    32.992455    -36.983902    -11.559443    6.923241    3.001729    5.051569    -67.596855    35.965786    -22.303675    -0.732974    -6.386326    -25.076538    2.533414    -6.609777    -2.809017    0.708538    -3.792569    27.961308    48.526588    20.636782    71.863785    26.871641    6.085703    20.154255    1.553756    1.166581    -4.608801    -7.147826    -47.206497    -23.830423    -2.922918    36.315262    -9.527513    1.421272    -3.182340    -8.078240    0.000000    0.000000    0.000000    -17.056923    -6.372270    -10.591528    9.476043    30.922594    6.209007    -3.539722    -6.488656    8.734898    0.000000    0.000000    0.000000    
-22.512794    93.133858    33.335110    15.272664    -13.845955    -125.270187    -4.435011    -0.225824    10.248472    3.521890    12.758157    9.863332    3.434117    36.609962    -26.276781    33.539940    -36.450401    -11.495645    6.994209    3.122670    5.138929    -67.446861    36.294224    -22.406836    -0.476267    -6.791808    -24.310198    1.313636    -6.926194    -2.878901    0.658842    -3.988052    28.140707    49.120667    20.639755    71.199219    28.792412    7.444434    21.949404    0.667590    1.723372    -5.658969    -7.065708    -46.723530    -23.832428    -2.899574    36.047371    -9.661996    1.702230    -3.114316    -7.978536    0.000000    0.000000    0.000000    -16.854683    -5.759912    -10.783657    9.218346    30.171535    6.346530    -3.348790    -5.768659    9.087625    0.000000    0.000000    0.000000    
-22.675114    93.284843    33.099102    15.150672    -13.696793    -125.195206    -4.306537    -0.333324    10.218036    3.404438    12.651666    9.853042    3.417272    36.514496    -26.287136    33.427952    -36.105618    -11.669082    6.941999    3.175598    4.875632    -67.581665    36.725079    -22.237513    0.393063    -7.440276    -23.546265    0.031566    -7.359597    -2.946272    0.538645    -4.141448    28.338833    49.020603    21.066942    70.664314    29.223734    8.651623    24.015207    1.482909    2.263541    -4.619534    -6.999648    -46.230721    -23.881426    -2.842131    35.821136    -9.792842    1.999610    -3.106340    -7.857054    0.000000    0.000000    0.000000    -16.662043    -5.156909    -10.914839    8.988790    29.469282    6.520112    -3.210248    -5.084357    9.384709    0.000000    0.000000    0.000000    
-22.866386    93.444763    32.879292    14.867860    -13.543016    -125.144531    -4.220475    -0.306040    10.138173    3.216335    12.524504    9.796408    3.145115    36.709015    -26.251648    34.048805    -35.934929    -11.442468    6.927251    3.283882    4.922604    -67.244110    37.156399    -22.561892    0.606412    -7.888481    -22.720587    -0.875533    -7.744542    -3.039563    0.414905    -4.113022    28.438051    49.358971    20.787621    70.053490    30.720257    9.905861    25.684624    1.295021    2.707846    -5.402242    -7.097119    -45.558701    -24.158590    -2.788465    35.516193    -9.773440    2.250502    -2.981356    -7.728960    0.000000    0.000000    0.000000    -16.583397    -4.374527    -10.866580    8.900010    28.678305    6.744321    -3.171796    -4.431613    9.455932    0.000000    0.000000    0.000000    
-23.048887    93.597717    32.650696    14.594712    -13.361435    -125.120773    -4.214846    -0.272105    10.016617    3.110553    12.497121    9.685947    3.161287    36.226337    -26.212027    33.594505    -35.517456    -11.750349    7.062836    3.227945    5.042421    -67.218719    37.247978    -22.590679    0.587395    -7.957710    -22.189804    -1.646586    -7.803276    -2.816989    0.304354    -4.377138    28.280392    49.806858    20.964523    69.410957    31.469116    11.209251    27.365662    1.697949    3.319430    -5.910137    -7.148286    -44.885605    -24.441008    -2.711801    35.244488    -9.769173    2.470108    -2.928070    -7.574063    0.000000    0.000000    0.000000    -16.446222    -3.586545    -10.699836    8.817232    27.876463    7.012960    -3.105661    -3.854754    9.375529    0.000000    0.000000    0.000000    
-23.218636    93.733826    32.439995    14.348759    -13.137858    -125.144417    -4.157981    -0.230676    9.860653    3.099666    12.260449    9.536019    2.800165    36.606361    -26.040121    34.068249    -35.584797    -11.389707    6.920634    3.212510    5.014027    -66.976822    37.366928    -22.473972    0.559650    -8.144592    -21.717537    -2.255382    -7.984675    -2.739835    0.182808    -4.402670    28.277508    50.044022    21.088783    68.677994    31.969496    12.243097    28.993744    1.705863    3.735279    -6.462914    -7.096391    -44.239578    -24.741199    -2.727175    35.015789    -9.704454    2.739557    -2.943817    -7.351089    0.000000    0.000000    0.000000    -16.250742    -2.834746    -10.372275    8.824078    27.092194    6.975074    -3.113847    -3.329707    9.318792    0.000000    0.000000    0.000000    
-23.366875    93.853630    32.208080    14.177027    -12.930326    -125.318054    -4.143600    -0.315194    9.745290    3.110691    11.957476    9.430821    2.637179    36.844494    -25.871784    34.041615    -35.471779    -11.283785    6.799038    3.356941    4.929989    -66.741417    37.077351    -22.394558    0.235593    -8.186713    -21.281086    -2.343922    -8.086226    -2.788358    0.190947    -4.473477    28.128273    50.554749    21.266470    67.870995    32.379169    13.082684    30.041285    2.192106    4.115409    -6.954564    -6.814888    -43.690464    -24.873636    -2.850017    34.823627    -9.654428    3.045663    -3.092481    -7.022695    0.000000    0.000000    0.000000    -15.982344    -2.267975    -10.070425    8.639562    26.442825    7.068258    -3.057311    -2.855531    9.449476    0.000000    0.000000    0.000000    
-23.527897    93.964111    31.972733    13.972790    -12.660578    -125.534561    -4.120036    -0.351776    9.619025    3.076845    11.746609    9.315077    2.422061    37.034691    -25.677675    34.288879    -35.407082    -11.022236    6.935015    3.485801    4.930275    -66.808929    36.638313    -22.273476    -0.037873    -7.957397    -20.977224    -2.298334    -7.912315    -2.608132    0.081160    -4.295883    27.946262    50.646606    21.398127    67.336800    32.423443    13.572868    31.299942    2.680917    4.184736    -6.765144    -6.454103    -43.091091    -25.044443    -3.107819    34.680202    -9.492684    3.412435    -3.335209    -6.617389    0.000000    0.000000    0.000000    -15.675304    -1.640774    -9.577412    8.521993    25.772577    6.878902    -2.959163    -2.372621    9.632904    0.000000    0.000000    0.000000    
-23.689211    94.068092    31.752163    13.737390    -12.357179    -125.823135    -4.072119    -0.356373    9.479384    3.119474    11.600826    9.175089    2.151783    36.757141    -25.425880    33.738766    -34.973934    -11.202424    6.904498    3.501195    4.959359    -66.866486    36.541073    -22.049202    0.030445    -7.854179    -20.625595    -2.343140    -7.795582    -2.611489    -0.230098    -4.097874    27.803114    50.958382    21.241835    66.965614    32.791004    14.071838    31.908623    2.807782    4.381561    -6.833344    -6.085555    -42.462532    -25.151218    -3.274021    34.499775    -8.954848    3.722821    -3.460811    -6.776354    0.000000    0.000000    0.000000    -15.379568    -0.982191    -8.687877    8.595479    24.993845    6.434369    -2.885751    -1.822686    9.664054    0.000000    0.000000    0.000000    
-23.860031    94.156586    31.558311    13.520261    -12.065573    -126.215958    -3.947258    -0.382978    9.351457    3.040497    11.464748    9.059347    1.947007    36.437191    -25.137241    33.133770    -34.543018    -11.348266    6.882957    3.558515    5.033919    -66.826630    36.457909    -21.929380    0.059208    -7.712166    -20.392223    -2.267959    -7.654502    -2.392258    -0.403701    -3.850037    27.665298    51.038074    21.318584    66.350685    32.634705    14.331169    33.052246    2.995154    4.310718    -7.227913    -5.690403    -41.785294    -24.971508    -3.166091    34.251068    -8.929517    3.953404    -3.730683    -6.660370    0.000000    0.000000    0.000000    -15.132129    -0.404146    -7.553171    8.778914    24.243650    5.975443    -2.804693    -1.270028    9.499239    0.000000    0.000000    0.000000    
-24.028713    94.237839    31.391651    13.376628    -11.838898    -126.685593    -3.829054    -0.525595    9.211125    2.896542    11.338045    8.941083    1.665156    36.428215    -24.832607    33.176624    -34.356705    -11.117434    6.943623    3.677378    5.170285    -66.941727    36.408337    -21.789896    0.079099    -7.830901    -20.189474    -1.871183    -7.781384    -2.186552    -0.327589    -3.811701    27.616425    51.056976    21.260683    65.610001    32.869190    14.692871    33.784420    3.003273    4.365110    -7.420844    -5.290964    -41.294720    -24.807400    -3.155688    34.203083    -8.926411    4.223084    -4.012507    -6.346266    0.000000    0.000000    0.000000    -14.951340    -0.021777    -6.640160    8.908606    23.672316    5.695091    -2.796165    -0.734056    9.407695    0.000000    0.000000    0.000000    
-24.195927    94.330971    31.245800    13.295057    -11.745775    -127.197838    -3.795621    -0.824613    9.064284    2.705613    11.200176    8.826255    2.100369    36.135479    -24.637602    31.953562    -34.265041    -11.403456    7.084152    3.697348    5.352235    -67.095871    36.206631    -21.620785    -0.069462    -7.833528    -19.973259    -1.816665    -7.814186    -1.990780    -0.115198    -3.940228    27.619677    51.245426    21.150518    64.587341    33.197491    15.088450    34.198391    3.119042    4.523851    -7.318979    -4.958022    -40.939426    -24.652596    -3.152460    34.172234    -8.937572    4.500231    -4.209688    -5.981429    0.000000    0.000000    0.000000    -14.880180    0.219925    -5.672618    9.115977    23.042402    5.171234    -2.862480    -0.155581    9.498989    0.000000    0.000000    0.000000    
-24.290197    94.406563    31.111589    13.217824    -11.595121    -127.664909    -3.934008    -0.956479    8.862698    2.962831    11.015557    8.609771    0.946656    36.329071    -24.127686    33.179447    -34.069565    -10.599247    6.874971    3.636082    5.631079    -66.972893    36.762348    -21.553425    0.303485    -8.045144    -19.753239    -2.025977    -7.961784    -1.760930    -0.496147    -3.881279    27.462162    51.353424    20.867435    64.131706    33.459499    15.490751    34.446545    2.954557    4.785821    -7.077404    -4.587586    -40.662319    -24.429852    -3.136573    34.248184    -9.017705    4.716643    -4.354304    -5.651021    0.000000    0.000000    0.000000    -14.749396    0.439839    -5.088449    9.182289    22.559956    4.861767    -2.933759    0.336817    9.684693    0.000000    0.000000    0.000000    
